<svg viewBox="0 0 48 48" xmlns="http://www.w3.org/2000/svg" role="img" aria-label="Pasternack Pest Management shield logo">
  <defs>
    <linearGradient id="ppmShield" x1="6" y1="3" x2="42" y2="45" gradientUnits="userSpaceOnUse">
      <stop offset="0" stop-color="#2a85c6"/>
      <stop offset=".55" stop-color="#1b6ca8"/>
      <stop offset="1" stop-color="#2ba24c"/>
    </linearGradient>
  </defs>
  <path d="M24 2.5 41.5 8.4V22.7c0 11.2-8.1 19.6-17.5 22.8C14.6 42.3 6.5 33.9 6.5 22.7V8.4Z"
        fill="url(#ppmShield)"/>
  <path d="M24 2.5 41.5 8.4V22.7c0 11.2-8.1 19.6-17.5 22.8C14.6 42.3 6.5 33.9 6.5 22.7V8.4Z"
        fill="none" stroke="#ffffff" stroke-opacity=".25" stroke-width="1.2"/>
  <!-- bug -->
  <g fill="#ffffff">
    <ellipse cx="24" cy="26.5" rx="5.4" ry="7.2"/>
    <circle cx="24" cy="16.6" r="3.5"/>
    <rect x="23.2" y="18" width="1.6" height="16" rx=".8" fill="#1b6ca8" opacity=".25"/>
  </g>
  <g stroke="#ffffff" stroke-width="1.7" stroke-linecap="round">
    <!-- antennae -->
    <path d="M22 14.2 19.3 11.2M26 14.2 28.7 11.2"/>
    <!-- legs left -->
    <path d="M18.8 23 14.2 20.4M18.4 27 13.4 27M18.8 31 14.4 33.6"/>
    <!-- legs right -->
    <path d="M29.2 23 33.8 20.4M29.6 27 34.6 27M29.2 31 33.6 33.6"/>
  </g>
  <!-- safe check -->
  <circle cx="33" cy="32.5" r="6.4" fill="#2ba24c" stroke="#ffffff" stroke-width="1.4"/>
  <path d="M30.2 32.6 32.3 34.7 35.9 30.6" fill="none" stroke="#ffffff" stroke-width="1.8" stroke-linecap="round" stroke-linejoin="round"/>
</svg>
