<?xml version="1.0" encoding="UTF-8"?>
<svg xmlns="http://www.w3.org/2000/svg" xmlns:xlink="http://www.w3.org/1999/xlink" width="732.7" height="463.7" viewBox="29.76 41.28 732.72 463.68" version="1.2">
<g id="surface1">
<path style=" stroke:none;fill-rule:nonzero;fill:rgb(0%,67.83905%,93.728638%);fill-opacity:1;" d="M 762.1875 504.589844 L 29.8125 504.585938 L 29.8125 41.414062 L 762.1875 41.414062 Z M 762.1875 504.589844 "/>
<path style=" stroke:none;fill-rule:nonzero;fill:rgb(13.729858%,12.159729%,12.548828%);fill-opacity:1;" d="M 393.714844 251.441406 C 376.382812 248.726562 361.515625 244.613281 353.722656 242.140625 C 345.921875 239.660156 339.703125 237.367188 334.984375 235.539062 C 327.898438 232.785156 320.90625 229.78125 314.023438 226.519531 C 304.839844 222.164062 295.929688 217.363281 287.324219 212.148438 C 278.714844 206.9375 270.21875 201.328125 261.851562 195.292969 C 260.515625 194.308594 259.835938 193.4375 259.820312 192.703125 C 259.78125 192.246094 259.8125 191.839844 259.898438 191.472656 C 260.78125 189.550781 262.023438 188.300781 263.59375 187.695312 C 265.167969 187.089844 266.929688 187.007812 268.875 187.445312 C 270.828125 187.882812 272.832031 188.65625 274.898438 189.753906 C 276.96875 190.859375 278.988281 192.140625 280.976562 193.601562 C 288.09375 198.609375 295.269531 203.234375 302.472656 207.515625 C 309.671875 211.792969 317.09375 215.828125 324.726562 219.59375 C 331.765625 223.097656 338.941406 226.328125 346.234375 229.273438 C 350.769531 231.152344 356.722656 233.386719 364.164062 235.726562 C 371.601562 238.0625 392.183594 245.496094 408.15625 247.195312 "/>
<path style=" stroke:none;fill-rule:nonzero;fill:rgb(13.729858%,12.159729%,12.548828%);fill-opacity:1;" d="M 643.726562 146.015625 C 632.605469 131.351562 626.222656 122.152344 629.539062 112.632812 C 632.855469 103.109375 664.882812 92.804688 673.84375 111.347656 C 682.796875 129.886719 667.726562 145.746094 665.480469 147.390625 C 665.480469 147.390625 661.070312 146.28125 654.300781 145.996094 C 647.542969 145.707031 643.726562 146.015625 643.726562 146.015625 "/>
<path style=" stroke:none;fill-rule:nonzero;fill:rgb(100%,100%,100%);fill-opacity:1;" d="M 661.328125 144.945312 C 663.226562 143.800781 675.960938 131.273438 670.132812 115.710938 C 664.304688 100.152344 638.34375 106.054688 634.828125 113.332031 C 631.015625 121.210938 636.992188 131.738281 646.25 145.207031 Z M 661.328125 144.945312 "/>
<path style=" stroke:none;fill-rule:nonzero;fill:rgb(13.729858%,12.159729%,12.548828%);fill-opacity:1;" d="M 646.375 144.324219 C 648.207031 122.273438 648.753906 108.828125 639.25 101.308594 C 629.746094 93.785156 590.613281 103.976562 593.476562 128.558594 C 596.339844 153.140625 621.855469 159.515625 625.191406 159.738281 C 625.191406 159.738281 628.953125 155.769531 635.632812 151.117188 C 642.308594 146.46875 646.375 144.324219 646.375 144.324219 "/>
<path style=" stroke:none;fill-rule:nonzero;fill:rgb(100%,100%,100%);fill-opacity:1;" d="M 627.832031 154.578125 C 625.167969 154.640625 604.167969 150.140625 600.058594 130.597656 C 595.945312 111.054688 626.074219 100.308594 634.339844 105.429688 C 643.277344 110.964844 644.003906 125.496094 643.296875 145.121094 Z M 627.832031 154.578125 "/>
<path style=" stroke:none;fill-rule:nonzero;fill:rgb(98.725891%,80.654907%,28.457642%);fill-opacity:1;" d="M 633.964844 151.5625 C 659.371094 137.800781 686.449219 144.082031 689.09375 162.773438 C 690.113281 169.988281 686.160156 182.019531 672.097656 185.046875 C 657.796875 188.128906 644.449219 196.074219 637.132812 201.152344 C 629.742188 206.277344 617.113281 206.996094 610.527344 200.613281 C 603.902344 194.210938 599.195312 170.398438 633.964844 151.5625 "/>
<path style=" stroke:none;fill-rule:nonzero;fill:rgb(13.729858%,12.159729%,12.548828%);fill-opacity:1;" d="M 633.964844 151.5625 C 659.371094 137.800781 686.449219 144.082031 689.09375 162.773438 C 690.113281 169.988281 686.160156 182.019531 672.097656 185.046875 C 657.796875 188.128906 644.449219 196.074219 637.132812 201.152344 C 629.742188 206.277344 617.113281 206.996094 610.527344 200.613281 C 603.902344 194.210938 599.195312 170.398438 633.964844 151.5625 M 605.523438 207.777344 C 612.863281 215.476562 626.855469 215.125 635.074219 209.351562 C 643.296875 203.582031 658.511719 194.484375 675.125 191.164062 C 691.742188 187.839844 696.464844 173.148438 695.238281 164.230469 C 692.058594 141.039062 659.964844 133.332031 630.878906 150.0625 C 592.578125 172.101562 598.171875 200.085938 605.523438 207.777344 "/>
<path style=" stroke:none;fill-rule:nonzero;fill:rgb(13.729858%,12.159729%,12.548828%);fill-opacity:1;" d="M 659.910156 141.074219 C 649.59375 149.714844 643.648438 176.472656 672.503906 188.542969 C 672.503906 188.542969 669.273438 192.851562 660.789062 190.289062 C 643.996094 185.214844 635.953125 165.28125 644.523438 146.042969 Z M 659.910156 141.074219 "/>
<path style=" stroke:none;fill-rule:nonzero;fill:rgb(13.729858%,12.159729%,12.548828%);fill-opacity:1;" d="M 628.785156 152.511719 C 622.308594 167.554688 623.535156 194.136719 644.347656 199.382812 L 642.597656 200.957031 C 620.035156 200.957031 610.945312 182.242188 615.316406 165.105469 Z M 628.785156 152.511719 "/>
<path style=" stroke:none;fill-rule:nonzero;fill:rgb(13.729858%,12.159729%,12.548828%);fill-opacity:1;" d="M 669.878906 159.683594 C 669.878906 163.222656 671.523438 166.089844 673.554688 166.089844 C 675.578125 166.089844 677.226562 163.222656 677.226562 159.683594 C 677.226562 156.144531 675.578125 153.277344 673.554688 153.277344 C 671.523438 153.277344 669.878906 156.144531 669.878906 159.683594 "/>
<path style=" stroke:none;fill-rule:nonzero;fill:rgb(13.729858%,12.159729%,12.548828%);fill-opacity:1;" d="M 695.390625 132.890625 C 695.390625 136.726562 698.503906 139.839844 702.335938 139.839844 C 706.171875 139.839844 709.285156 136.726562 709.285156 132.890625 C 709.285156 129.058594 706.171875 125.945312 702.335938 125.945312 C 698.503906 125.945312 695.390625 129.058594 695.390625 132.890625 "/>
<path style=" stroke:none;fill-rule:nonzero;fill:rgb(13.729858%,12.159729%,12.548828%);fill-opacity:1;" d="M 695.6875 134.902344 C 695.148438 133.039062 688.117188 131.097656 682.425781 140.578125 C 680.851562 143.199219 679.339844 148.542969 679.339844 148.542969 L 676.65625 147.140625 C 681.964844 128.632812 700.914062 121.488281 707.28125 128.011719 Z M 695.6875 134.902344 "/>
<path style=" stroke:none;fill-rule:nonzero;fill:rgb(13.729858%,12.159729%,12.548828%);fill-opacity:1;" d="M 704.539062 149.289062 C 702.609375 151.863281 703.132812 155.515625 705.707031 157.445312 C 708.285156 159.375 711.9375 158.851562 713.863281 156.28125 C 715.796875 153.703125 715.269531 150.050781 712.699219 148.121094 C 710.121094 146.191406 706.46875 146.714844 704.539062 149.289062 "/>
<path style=" stroke:none;fill-rule:nonzero;fill:rgb(13.729858%,12.159729%,12.548828%);fill-opacity:1;" d="M 703.730469 150.785156 C 704.304688 149.265625 700.558594 144.421875 691.96875 147.921875 C 689.589844 148.894531 685.890625 151.71875 685.890625 151.71875 L 684.792969 149.429688 C 697.671875 139.671875 713.984375 144.410156 714.976562 151.996094 Z M 703.730469 150.785156 "/>
<path style=" stroke:none;fill-rule:nonzero;fill:rgb(13.729858%,12.159729%,12.548828%);fill-opacity:1;" d="M 77.523438 232.441406 C 77.152344 231.519531 76.96875 230.503906 76.96875 229.394531 L 76.96875 226.351562 C 76.96875 225.429688 77.0625 224.414062 77.246094 223.304688 C 78.90625 216.109375 81.765625 209.882812 85.828125 204.625 C 89.882812 199.363281 94.683594 194.84375 100.21875 191.0625 C 105.757812 187.28125 111.800781 184.140625 118.351562 181.648438 C 124.898438 179.160156 131.5 177.175781 138.140625 175.699219 C 153.640625 172.195312 170.800781 170.535156 189.625 170.71875 C 199.214844 171.273438 207.292969 172.566406 213.84375 174.59375 C 220.390625 176.625 225.835938 179.066406 230.171875 181.925781 C 234.507812 184.789062 237.785156 188.015625 240 191.613281 C 242.214844 195.210938 243.78125 198.769531 244.703125 202.273438 C 246.734375 210.761719 245.992188 220.171875 242.492188 230.503906 C 238.984375 240.285156 233.539062 249.144531 226.160156 257.074219 C 219.699219 264.089844 210.890625 270.6875 199.726562 276.867188 C 188.558594 283.050781 174.027344 287.0625 156.132812 288.90625 C 152.625 289.277344 149.027344 289.554688 145.335938 289.734375 C 141.644531 289.921875 137.769531 290.011719 133.710938 290.011719 C 131.5 295.367188 129.789062 300.441406 128.589844 305.238281 C 127.390625 310.039062 126.515625 314.742188 125.960938 319.351562 C 125.410156 323.964844 125.132812 328.671875 125.132812 333.46875 C 125.132812 338.261719 125.3125 343.246094 125.683594 348.417969 C 125.683594 351 124.714844 353.210938 122.78125 355.058594 C 120.839844 356.902344 118.582031 357.550781 115.996094 357 C 113.597656 356.445312 111.105469 355.242188 108.523438 353.394531 C 107.230469 352.289062 106.171875 351.136719 105.339844 349.9375 C 104.511719 348.738281 103.726562 347.492188 102.988281 346.203125 C 99.480469 340.292969 98.007812 333.699219 98.558594 326.410156 C 99.113281 319.125 100.773438 311.601562 103.542969 303.851562 C 104.09375 301.824219 104.878906 299.519531 105.894531 296.933594 C 106.90625 294.351562 108.152344 291.582031 109.632812 288.628906 C 106.492188 288.261719 103.726562 287.753906 101.328125 287.105469 C 98.929688 286.460938 96.898438 285.679688 95.238281 284.753906 C 93.207031 283.835938 91.453125 282.726562 89.980469 281.433594 C 89.054688 280.695312 88.042969 279.683594 86.9375 278.390625 C 85.828125 277.097656 85.917969 275.714844 87.210938 274.238281 C 88.132812 273.128906 89.378906 271.882812 90.949219 270.5 C 92.511719 269.117188 94.132812 267.964844 95.792969 267.039062 C 97.453125 266.117188 99.15625 265.425781 100.914062 264.960938 C 102.664062 264.503906 104.277344 264.546875 105.757812 265.101562 C 106.125 265.289062 106.585938 265.566406 107.140625 265.933594 C 108.25 266.671875 109.535156 267.410156 111.015625 268.148438 C 111.75 268.332031 112.488281 268.609375 113.230469 268.976562 C 113.964844 269.347656 114.753906 269.625 115.582031 269.808594 C 116.414062 269.996094 117.472656 270.179688 118.765625 270.363281 C 120.054688 267.78125 121.300781 265.425781 122.503906 263.300781 C 123.699219 261.183594 124.855469 259.109375 125.960938 257.074219 C 130.574219 248.773438 134.957031 241.394531 139.109375 234.933594 C 143.261719 228.476562 146.902344 223.03125 150.042969 218.601562 C 153.730469 213.4375 157.144531 208.914062 160.285156 205.039062 C 160.464844 204.671875 160.742188 204.304688 161.113281 203.933594 C 161.480469 203.566406 161.847656 203.242188 162.21875 202.964844 C 162.589844 202.6875 162.957031 202.367188 163.328125 201.996094 C 164.617188 201.074219 165.957031 200.332031 167.34375 199.78125 C 168.726562 199.226562 169.972656 199.320312 171.078125 200.054688 C 172.921875 201.164062 175.089844 203.519531 177.582031 207.117188 C 180.074219 210.714844 181.042969 214.632812 180.488281 218.878906 C 180.117188 220.726562 179.472656 222.386719 178.550781 223.859375 C 177.628906 224.96875 176.199219 226.628906 174.261719 228.84375 C 172.324219 231.054688 169.972656 233.734375 167.203125 236.867188 C 164.4375 240.007812 161.433594 243.699219 158.207031 247.941406 C 154.976562 252.1875 151.703125 256.894531 148.382812 262.058594 C 147.457031 263.714844 146.535156 265.335938 145.613281 266.902344 C 144.6875 268.472656 143.769531 269.996094 142.847656 271.472656 C 149.671875 271.289062 156.867188 270.59375 164.4375 269.394531 C 172 268.195312 179.289062 266.070312 186.300781 263.027344 C 193.3125 259.980469 199.679688 255.875 205.402344 250.707031 C 211.121094 245.542969 215.546875 238.902344 218.6875 230.777344 C 219.792969 227.832031 220.578125 224.136719 221.039062 219.707031 C 221.5 215.28125 220.578125 211.039062 218.273438 206.976562 C 215.960938 202.917969 211.855469 199.550781 205.957031 196.871094 C 200.046875 194.203125 191.375 193.136719 179.9375 193.6875 C 168.492188 194.242188 157.792969 196.179688 147.828125 199.503906 C 137.863281 202.824219 128.914062 206.65625 120.980469 210.992188 C 113.042969 215.328125 106.261719 219.617188 100.636719 223.859375 C 95.003906 228.109375 90.8125 231.332031 88.042969 233.546875 C 85.457031 235.761719 83.242188 236.640625 81.398438 236.175781 C 79.550781 235.71875 78.257812 234.472656 77.523438 232.441406 "/>
<path style=" stroke:none;fill-rule:nonzero;fill:rgb(13.729858%,12.159729%,12.548828%);fill-opacity:1;" d="M 219.496094 313.421875 C 220.332031 311.019531 220.824219 309.101562 220.964844 307.660156 C 221.101562 306.234375 220.996094 305.085938 220.652344 304.226562 C 220.296875 303.367188 219.878906 302.796875 219.390625 302.507812 C 218.898438 302.222656 218.515625 302.019531 218.238281 301.90625 C 217.816406 301.792969 217.117188 301.761719 216.140625 301.820312 C 215.160156 301.878906 213.867188 302.421875 212.257812 303.453125 C 210.648438 304.484375 208.800781 306.203125 206.703125 308.613281 C 204.605469 311.019531 202.226562 314.570312 199.574219 319.269531 C 196.914062 324.082031 195.304688 327.75 194.746094 330.269531 C 194.1875 332.792969 194.046875 334.683594 194.328125 335.945312 C 194.746094 337.316406 195.65625 338.117188 197.054688 338.351562 C 199.710938 338.695312 202.296875 337.691406 204.816406 335.34375 C 207.332031 332.996094 209.636719 330.328125 211.738281 327.347656 C 214.113281 323.910156 216.417969 319.902344 218.65625 315.3125 C 218.65625 315.199219 218.722656 315.085938 218.867188 314.96875 Z M 255.359375 317.203125 C 256.753906 317.546875 257.453125 318.238281 257.453125 319.269531 C 257.453125 319.726562 257.3125 320.242188 257.035156 320.816406 C 256.199219 322.308594 254.96875 324.28125 253.367188 326.746094 C 251.757812 329.210938 249.9375 331.703125 247.914062 334.226562 C 245.882812 336.742188 243.71875 339.125 241.410156 341.359375 C 239.105469 343.59375 236.691406 345.285156 234.175781 346.433594 C 232.636719 347.230469 231.097656 347.722656 229.5625 347.890625 C 228.023438 348.0625 226.625 348.089844 225.371094 347.976562 C 223.828125 347.863281 222.433594 347.632812 221.171875 347.285156 C 218.375 346.257812 216.457031 344.652344 215.40625 342.476562 C 214.359375 340.296875 213.902344 337.71875 214.042969 334.738281 C 210.824219 338.75 207.292969 341.898438 203.453125 344.195312 C 199.605469 346.488281 195.9375 347.519531 192.441406 347.285156 C 189.925781 347.171875 187.441406 346.601562 184.996094 345.570312 C 182.546875 344.539062 180.660156 342.847656 179.335938 340.496094 C 178.003906 338.148438 177.445312 335.027344 177.65625 331.128906 C 177.867188 327.238281 179.300781 322.363281 181.953125 316.519531 C 184.609375 310.671875 187.617188 305.945312 190.972656 302.335938 C 194.328125 298.726562 197.683594 295.976562 201.039062 294.085938 C 204.394531 292.195312 207.714844 291.078125 211.003906 290.734375 C 214.285156 290.386719 217.1875 290.617188 219.703125 291.421875 C 221.804688 292.109375 223.375 293.082031 224.421875 294.339844 C 225.472656 295.605469 226.207031 296.980469 226.625 298.46875 C 227.324219 297.324219 227.953125 296.175781 228.515625 295.027344 C 228.792969 294.574219 229.070312 294.113281 229.351562 293.65625 C 229.628906 292.96875 230.050781 292.394531 230.613281 291.933594 C 231.03125 291.480469 231.519531 291.078125 232.078125 290.734375 C 232.636719 290.386719 233.265625 290.332031 233.964844 290.558594 C 235.222656 290.90625 236.902344 291.59375 239 292.621094 C 241.097656 293.65625 243.054688 295.027344 244.871094 296.75 C 245.429688 297.207031 245.78125 297.78125 245.921875 298.46875 C 246.058594 299.042969 246.023438 299.789062 245.816406 300.703125 C 245.605469 301.621094 245.082031 302.710938 244.246094 303.96875 C 243.683594 304.773438 242.84375 306.035156 241.726562 307.75 C 240.605469 309.46875 239.382812 311.445312 238.054688 313.683594 C 236.722656 315.914062 235.433594 318.265625 234.175781 320.730469 C 232.917969 323.195312 231.9375 325.488281 231.242188 327.609375 C 230.535156 329.730469 230.261719 331.53125 230.402344 333.019531 C 230.535156 334.507812 231.308594 335.429688 232.707031 335.769531 C 234.246094 336.226562 235.886719 335.859375 237.636719 334.652344 C 239.382812 333.449219 241.097656 331.960938 242.773438 330.183594 C 244.453125 328.40625 245.953125 326.519531 247.285156 324.511719 C 248.613281 322.507812 249.695312 320.875 250.535156 319.613281 C 250.671875 319.15625 251.023438 318.695312 251.582031 318.238281 C 252.5625 317.4375 253.816406 317.09375 255.359375 317.203125 "/>
<path style=" stroke:none;fill-rule:nonzero;fill:rgb(13.729858%,12.159729%,12.548828%);fill-opacity:1;" d="M 257.242188 336.113281 C 257.382812 336.226562 257.453125 336.34375 257.453125 336.460938 C 257.453125 336.570312 257.3125 336.972656 257.035156 337.660156 C 256.753906 337.890625 256.542969 338.234375 256.40625 338.695312 C 256.265625 339.148438 256.195312 339.582031 256.195312 339.980469 C 256.195312 340.382812 256.367188 340.78125 256.722656 341.1875 C 257.066406 341.585938 257.730469 341.84375 258.710938 341.960938 C 259.96875 342.191406 260.914062 342.015625 261.542969 341.441406 C 262.171875 340.871094 262.59375 340.09375 262.804688 339.125 C 263.011719 338.148438 263.046875 337 262.90625 335.683594 C 262.765625 334.367188 262.625 333.082031 262.488281 331.816406 C 262.207031 329.179688 261.890625 326.773438 261.542969 324.597656 C 261.191406 322.421875 260.878906 320.1875 260.601562 317.890625 L 260.601562 315.832031 C 259.480469 317.664062 258.398438 319.328125 257.347656 320.8125 C 256.300781 322.304688 255.425781 323.511719 254.726562 324.425781 C 254.445312 324.886719 254.023438 325.28125 253.46875 325.628906 C 253.050781 325.859375 252.558594 326.003906 252 326.058594 C 251.4375 326.117188 250.878906 325.859375 250.324219 325.28125 C 249.625 324.710938 249.242188 324.195312 249.171875 323.738281 C 249.101562 323.277344 249.136719 322.820312 249.273438 322.363281 C 249.417969 321.90625 249.695312 321.386719 250.113281 320.8125 C 250.953125 319.214844 251.964844 317.378906 253.15625 315.3125 C 254.339844 313.253906 255.460938 311.191406 256.511719 309.128906 C 257.558594 307.0625 258.535156 305.203125 259.445312 303.539062 C 260.351562 301.878906 260.945312 300.589844 261.230469 299.671875 C 261.507812 297.152344 261.855469 294.917969 262.277344 292.96875 C 262.695312 291.019531 263.253906 289.816406 263.957031 289.359375 C 264.933594 288.671875 266.226562 288.066406 267.835938 287.550781 C 269.441406 287.035156 271.191406 286.636719 273.078125 286.347656 C 274.96875 286.0625 276.886719 285.890625 278.84375 285.835938 C 280.800781 285.777344 282.621094 285.808594 284.296875 285.917969 C 284.996094 286.148438 285.558594 286.496094 285.976562 286.949219 C 286.257812 287.410156 286.394531 288.039062 286.394531 288.839844 C 286.394531 289.644531 286.046875 290.847656 285.347656 292.453125 C 284.644531 293.710938 283.984375 295.347656 283.355469 297.347656 C 282.722656 299.355469 282.164062 301.59375 281.679688 304.054688 C 281.1875 306.519531 280.90625 309.128906 280.839844 311.878906 C 280.765625 314.628906 280.941406 317.265625 281.363281 319.78125 C 281.921875 322.421875 282.480469 325.484375 283.042969 328.980469 C 283.597656 332.476562 283.527344 335.828125 282.832031 339.039062 C 282.128906 342.242188 280.382812 345.023438 277.585938 347.375 C 274.789062 349.71875 270.25 351.011719 263.957031 351.246094 C 260.179688 351.355469 257.035156 350.953125 254.519531 350.039062 C 252.277344 349.351562 250.394531 348.148438 248.855469 346.429688 C 247.316406 344.710938 246.96875 342.191406 247.808594 338.863281 C 247.949219 338.179688 248.15625 337.546875 248.433594 336.972656 C 248.71875 336.398438 249.0625 335.859375 249.484375 335.34375 C 249.902344 334.824219 250.464844 334.394531 251.160156 334.050781 C 251.300781 333.933594 251.507812 333.882812 251.792969 333.882812 C 252.488281 333.882812 253.1875 333.933594 253.890625 334.050781 C 254.585938 334.28125 255.253906 334.539062 255.882812 334.824219 C 256.511719 335.109375 256.960938 335.539062 257.242188 336.113281 "/>
<path style=" stroke:none;fill-rule:nonzero;fill:rgb(13.729858%,12.159729%,12.548828%);fill-opacity:1;" d="M 316.804688 294.855469 C 314.4375 299.21875 312.257812 303.855469 310.304688 308.78125 C 308.34375 313.710938 306.597656 318.980469 305.058594 324.597656 C 304.222656 327.925781 303.9375 330.613281 304.222656 332.675781 C 304.222656 332.792969 304.253906 332.878906 304.328125 332.933594 C 304.394531 332.996094 304.433594 333.140625 304.433594 333.363281 C 304.710938 334.625 305.40625 335.429688 306.527344 335.769531 C 308.0625 336.113281 309.742188 335.714844 311.558594 334.566406 C 313.375 333.417969 315.09375 331.933594 316.699219 330.101562 C 318.304688 328.269531 319.808594 326.347656 321.207031 324.34375 C 322.605469 322.339844 323.652344 320.699219 324.355469 319.441406 C 324.632812 318.980469 325.054688 318.523438 325.613281 318.066406 C 326.453125 317.378906 327.636719 317.09375 329.179688 317.203125 C 330.574219 317.320312 331.273438 317.953125 331.273438 319.097656 C 331.273438 319.558594 331.132812 320.125 330.855469 320.816406 C 329.734375 322.765625 327.988281 325.484375 325.613281 328.980469 C 323.234375 332.480469 320.578125 335.824219 317.640625 339.039062 C 316.804688 339.726562 316.035156 340.410156 315.335938 341.101562 C 313.9375 342.476562 312.535156 343.621094 311.140625 344.539062 C 311 344.648438 310.859375 344.734375 310.722656 344.792969 C 310.582031 344.855469 310.441406 344.996094 310.304688 345.226562 C 309.324219 345.683594 308.273438 346.113281 307.15625 346.515625 C 306.035156 346.914062 304.777344 347.175781 303.382812 347.285156 C 302.820312 347.398438 301.84375 347.347656 300.445312 347.117188 C 297.789062 346.542969 295.761719 345.3125 294.363281 343.417969 C 292.964844 341.53125 291.914062 339.492188 291.21875 337.316406 C 290.519531 334.796875 290.101562 332.050781 289.960938 329.066406 C 289.820312 327.808594 289.785156 326.605469 289.851562 325.457031 C 289.929688 324.3125 290.03125 323.109375 290.171875 321.847656 C 290.453125 319.324219 290.867188 316.890625 291.425781 314.539062 C 291.984375 312.191406 292.613281 310.101562 293.316406 308.265625 C 293.871094 306.203125 294.570312 304.199219 295.414062 302.25 C 298.066406 295.949219 300.859375 290.109375 303.59375 284.628906 C 318.351562 255.03125 339.121094 227.367188 339.121094 227.367188 C 341.5 223.773438 343.699219 220.515625 345.730469 217.589844 C 347.753906 214.667969 349.539062 212.234375 351.078125 210.28125 C 352.753906 207.992188 354.359375 205.988281 355.902344 204.265625 C 356.738281 203.464844 357.578125 202.835938 358.417969 202.378906 C 359.117188 201.921875 359.917969 201.578125 360.828125 201.347656 C 361.738281 201.117188 362.679688 201.289062 363.660156 201.859375 C 364.5 202.320312 365.617188 203.125 367.015625 204.265625 C 368.414062 205.417969 369.636719 206.734375 370.6875 208.222656 C 371.734375 209.714844 372.433594 211.285156 372.78125 212.949219 C 373.128906 214.609375 372.816406 216.132812 371.839844 217.503906 C 371.136719 218.421875 369.953125 219.796875 368.273438 221.628906 C 366.597656 223.464844 364.5 225.699219 361.980469 228.335938 C 361.980469 228.335938 336.992188 257.691406 316.804688 294.855469 "/>
<path style=" stroke:none;fill-rule:nonzero;fill:rgb(13.729858%,12.159729%,12.548828%);fill-opacity:1;" d="M 342.808594 319.269531 C 342.25 320.1875 341.792969 320.988281 341.445312 321.675781 C 341.09375 322.363281 340.78125 323.050781 340.503906 323.738281 C 344.277344 323.28125 347.492188 322.304688 350.148438 320.816406 C 352.800781 319.328125 355.042969 317.664062 356.859375 315.832031 C 358.675781 314 360.039062 312.195312 360.949219 310.414062 C 361.855469 308.640625 362.382812 307.175781 362.523438 306.035156 C 362.800781 303.96875 362.554688 302.738281 361.789062 302.335938 C 361.019531 301.933594 360.496094 301.734375 360.214844 301.734375 C 359.511719 301.734375 358.609375 301.933594 357.488281 302.335938 C 356.367188 302.738281 355.078125 303.539062 353.609375 304.742188 C 352.140625 305.945312 350.496094 307.695312 348.679688 309.988281 C 346.863281 312.28125 344.90625 315.375 342.808594 319.269531 M 325.191406 316.519531 C 327.84375 310.671875 330.855469 305.945312 334.207031 302.335938 C 337.5625 298.726562 340.921875 295.976562 344.277344 294.085938 C 347.632812 292.195312 350.953125 291.078125 354.238281 290.734375 C 357.519531 290.386719 360.425781 290.617188 362.941406 291.421875 C 365.320312 292.222656 367.03125 293.398438 368.078125 294.945312 C 369.128906 296.492188 369.789062 298.125 370.070312 299.84375 C 370.210938 300.417969 370.316406 301.046875 370.386719 301.734375 C 370.453125 302.421875 370.421875 303.226562 370.28125 304.140625 C 370.140625 305.746094 369.652344 307.835938 368.816406 310.414062 C 367.976562 312.996094 366.433594 315.601562 364.199219 318.238281 C 361.960938 320.875 358.78125 323.367188 354.660156 325.714844 C 350.535156 328.066406 345.042969 329.753906 338.195312 330.785156 C 337.914062 332.738281 338.054688 334.625 338.613281 336.457031 C 339.171875 338.289062 340.78125 339.613281 343.4375 340.410156 C 343.996094 340.640625 344.625 340.753906 345.324219 340.753906 L 345.535156 340.753906 L 345.746094 340.925781 C 348.261719 341.15625 350.636719 341.039062 352.875 340.582031 C 355.109375 340.125 357.175781 339.464844 359.0625 338.609375 C 360.949219 337.75 362.625 336.773438 364.09375 335.683594 C 365.5625 334.59375 366.855469 333.539062 367.976562 332.503906 C 368.253906 332.277344 368.5 332.046875 368.710938 331.820312 C 368.917969 331.585938 369.160156 331.363281 369.441406 331.128906 C 370.28125 330.210938 370.769531 329.699219 370.910156 329.582031 C 372.449219 327.863281 373.847656 326.089844 375.105469 324.253906 C 376.363281 322.421875 377.339844 320.875 378.042969 319.613281 C 378.179688 319.15625 378.53125 318.695312 379.089844 318.238281 C 380.066406 317.4375 381.324219 317.09375 382.867188 317.207031 C 383.703125 317.4375 384.226562 317.722656 384.4375 318.066406 C 384.648438 318.414062 384.75 318.808594 384.75 319.269531 C 384.75 319.726562 384.609375 320.246094 384.332031 320.816406 C 383.632812 321.960938 382.832031 323.304688 381.921875 324.855469 C 381.011719 326.402344 379.859375 328.09375 378.460938 329.925781 C 377.902344 331.074219 376.574219 332.847656 374.476562 335.253906 C 374.195312 335.597656 373.878906 335.96875 373.535156 336.375 C 373.183594 336.773438 372.726562 337.257812 372.171875 337.832031 C 369.371094 340.464844 365.910156 343.078125 361.789062 345.65625 C 357.664062 348.234375 352.800781 349.636719 347.214844 349.867188 C 345.535156 350.09375 343.648438 350.09375 341.550781 349.867188 C 336.378906 349.410156 332.355469 348.429688 329.488281 346.945312 C 326.625 345.457031 324.492188 343.621094 323.09375 341.445312 C 321.835938 339.496094 321.101562 337.375 320.894531 335.082031 C 320.683594 332.792969 320.789062 330.5 321.207031 328.207031 L 321.207031 328.035156 C 321.910156 324.597656 323.234375 320.757812 325.191406 316.519531 "/>
<path style=" stroke:none;fill-rule:nonzero;fill:rgb(13.729858%,12.159729%,12.548828%);fill-opacity:1;" d="M 399.015625 310.15625 C 398.3125 311.648438 397.613281 313.191406 396.914062 314.800781 C 396.214844 316.402344 395.519531 318.011719 394.816406 319.613281 C 397.472656 315.945312 400.375 312.191406 403.523438 308.351562 C 406.667969 304.511719 409.816406 301.132812 412.960938 298.210938 C 416.105469 295.289062 419.179688 293.082031 422.1875 291.59375 C 425.191406 290.105469 427.953125 289.871094 430.46875 290.90625 C 431.730469 291.363281 433.265625 292.050781 435.085938 292.96875 C 436.898438 293.882812 438.652344 295.089844 440.328125 296.578125 C 440.746094 297.152344 441.027344 297.78125 441.164062 298.46875 C 441.304688 299.042969 441.304688 299.789062 441.164062 300.703125 C 441.027344 301.621094 440.539062 302.710938 439.699219 303.96875 C 438.859375 305 437.496094 307.007812 435.613281 309.988281 C 433.722656 312.96875 431.867188 316.175781 430.050781 319.613281 C 429.632812 320.300781 428.792969 320.640625 427.535156 320.640625 C 426.277344 320.640625 424.949219 320.46875 423.550781 320.128906 C 422.152344 319.78125 420.753906 319.382812 419.355469 318.925781 C 417.957031 318.46875 416.910156 318.125 416.207031 317.890625 C 415.089844 317.4375 414.460938 316.890625 414.324219 316.261719 C 414.183594 315.628906 414.113281 315.140625 414.113281 314.800781 C 414.949219 312.851562 415.789062 310.960938 416.628906 309.128906 C 417.46875 307.296875 418.308594 305.574219 419.148438 303.96875 L 418.726562 304.140625 C 414.808594 307.347656 410.964844 311.132812 407.191406 315.484375 C 403.976562 319.15625 400.480469 323.738281 396.703125 329.238281 C 392.933594 334.738281 389.433594 341.097656 386.21875 348.320312 L 386.21875 348.839844 C 386.078125 349.523438 385.765625 349.953125 385.277344 350.125 C 384.785156 350.296875 384.402344 350.382812 384.121094 350.382812 C 381.324219 350.152344 379.121094 349.636719 377.515625 348.839844 C 375.910156 348.03125 374.617188 347.175781 373.632812 346.257812 C 372.9375 345.679688 372.585938 345 372.585938 344.191406 C 372.449219 343.734375 372.449219 343.390625 372.585938 343.164062 C 372.730469 340.984375 373.078125 338.605469 373.632812 336.03125 C 374.199219 333.449219 374.824219 330.875 375.523438 328.292969 C 376.226562 325.714844 376.957031 323.222656 377.726562 320.8125 C 378.492188 318.414062 379.226562 316.230469 379.925781 314.285156 C 380.625 312.679688 381.289062 311.132812 381.917969 309.640625 C 382.546875 308.152344 383.074219 306.890625 383.492188 305.859375 C 383.773438 305.402344 383.945312 304.972656 384.019531 304.570312 C 384.085938 304.167969 384.257812 303.742188 384.542969 303.28125 C 385.242188 301.449219 385.972656 299.699219 386.746094 298.035156 C 387.511719 296.378906 388.246094 294.917969 388.945312 293.65625 C 389.644531 292.28125 390.273438 290.960938 390.832031 289.703125 C 390.832031 289.589844 390.902344 289.472656 391.042969 289.359375 C 391.042969 289.246094 391.183594 288.953125 391.460938 288.496094 C 391.742188 288.039062 392.199219 287.582031 392.824219 287.121094 C 393.457031 286.664062 394.1875 286.550781 395.027344 286.777344 C 396.144531 287.011719 397.71875 287.550781 399.746094 288.414062 C 401.773438 289.269531 403.625 290.503906 405.304688 292.109375 C 405.441406 292.222656 405.652344 292.453125 405.933594 292.796875 C 406.070312 293.027344 406.210938 293.3125 406.351562 293.65625 C 406.492188 294 406.5625 294.402344 406.5625 294.855469 C 406.5625 296.007812 406.070312 297.324219 405.09375 298.8125 C 405.09375 298.925781 405.058594 299.011719 404.992188 299.070312 C 404.917969 299.128906 404.886719 299.214844 404.886719 299.328125 C 404.601562 299.558594 404.148438 300.273438 403.523438 301.476562 C 402.894531 302.679688 402.292969 303.742188 401.738281 304.65625 C 401.179688 305.574219 400.652344 306.546875 400.164062 307.578125 C 399.671875 308.613281 399.289062 309.46875 399.015625 310.15625 "/>
<path style=" stroke:none;fill-rule:nonzero;fill:rgb(13.729858%,12.159729%,12.548828%);fill-opacity:1;" d="M 457.734375 320.128906 C 460.386719 316.347656 463.292969 312.535156 466.4375 308.695312 C 469.585938 304.855469 472.761719 301.449219 475.980469 298.46875 C 479.195312 295.488281 482.304688 293.226562 485.3125 291.679688 C 488.316406 290.128906 491.082031 289.871094 493.597656 290.90625 C 494.996094 291.363281 496.601562 292.050781 498.421875 292.96875 C 500.238281 293.882812 501.914062 295.089844 503.457031 296.578125 C 504.011719 297.152344 504.363281 297.78125 504.503906 298.46875 C 504.636719 299.042969 504.605469 299.789062 504.398438 300.703125 C 504.183594 301.621094 503.664062 302.710938 502.824219 303.96875 C 502.261719 304.773438 501.425781 306.035156 500.308594 307.75 C 499.183594 309.46875 497.964844 311.445312 496.636719 313.683594 C 495.304688 315.914062 494.015625 318.265625 492.757812 320.730469 C 491.5 323.195312 490.554688 325.484375 489.925781 327.605469 C 489.296875 329.730469 489.015625 331.53125 489.089844 333.019531 C 489.15625 334.507812 489.886719 335.429688 491.289062 335.769531 C 492.828125 336.113281 494.503906 335.714844 496.324219 334.566406 C 498.140625 333.421875 499.851562 331.933594 501.460938 330.101562 C 503.066406 328.269531 504.570312 326.347656 505.96875 324.34375 C 507.367188 322.339844 508.414062 320.699219 509.117188 319.4375 C 509.253906 318.980469 509.601562 318.523438 510.164062 318.066406 C 511.003906 317.378906 512.261719 317.09375 513.9375 317.203125 C 515.335938 317.320312 516.039062 317.953125 516.039062 319.097656 C 516.039062 319.558594 515.894531 320.128906 515.621094 320.816406 C 514.777344 322.308594 513.554688 324.253906 511.949219 326.660156 C 510.335938 329.066406 508.519531 331.53125 506.496094 334.054688 C 504.464844 336.570312 502.296875 338.980469 499.996094 341.273438 C 497.6875 343.5625 495.273438 345.285156 492.757812 346.433594 C 491.21875 347.117188 489.679688 347.546875 488.140625 347.722656 C 486.601562 347.890625 485.207031 347.917969 483.949219 347.804688 C 482.410156 347.691406 481.011719 347.460938 479.753906 347.117188 C 476.257812 345.855469 474.125 343.5625 473.359375 340.238281 C 472.589844 336.914062 472.550781 333.140625 473.253906 328.898438 C 473.953125 324.65625 475.210938 320.328125 477.027344 315.914062 C 478.84375 311.507812 480.59375 307.523438 482.273438 303.96875 L 482.0625 304.140625 C 478.003906 307.234375 474.09375 311.019531 470.316406 315.484375 C 466.960938 319.269531 463.429688 323.941406 459.726562 329.496094 C 456.019531 335.054688 452.558594 341.503906 449.34375 348.839844 C 449.203125 349.523438 448.886719 349.953125 448.402344 350.125 C 447.910156 350.296875 447.523438 350.382812 447.25 350.382812 C 444.449219 350.152344 442.214844 349.636719 440.539062 348.839844 C 438.859375 348.03125 437.597656 347.175781 436.761719 346.257812 C 436.0625 345.683594 435.714844 344.996094 435.714844 344.191406 C 435.578125 343.734375 435.578125 343.394531 435.714844 343.160156 C 435.851562 340.984375 436.203125 338.605469 436.761719 336.03125 C 437.324219 333.449219 437.953125 330.871094 438.648438 328.292969 C 439.351562 325.714844 440.085938 323.222656 440.851562 320.816406 C 441.617188 318.410156 442.351562 316.230469 443.054688 314.285156 C 443.753906 312.679688 444.417969 311.132812 445.046875 309.640625 C 445.675781 308.152344 446.199219 306.890625 446.621094 305.859375 C 446.753906 305.289062 447.105469 304.429688 447.667969 303.285156 C 448.367188 301.449219 449.097656 299.699219 449.871094 298.035156 C 450.636719 296.378906 451.371094 294.917969 452.074219 293.65625 C 452.769531 292.28125 453.398438 290.960938 453.960938 289.703125 C 453.960938 289.589844 454.027344 289.472656 454.167969 289.359375 C 454.167969 289.246094 454.304688 288.953125 454.589844 288.496094 C 454.867188 288.039062 455.324219 287.582031 455.953125 287.121094 C 456.582031 286.664062 457.316406 286.550781 458.152344 286.777344 C 459.269531 287.011719 460.84375 287.550781 462.871094 288.414062 C 464.894531 289.269531 466.753906 290.503906 468.429688 292.109375 C 468.566406 292.222656 468.777344 292.453125 469.058594 292.796875 C 469.199219 293.027344 469.339844 293.3125 469.480469 293.65625 C 469.617188 294 469.6875 294.402344 469.6875 294.855469 C 469.6875 296.007812 469.199219 297.324219 468.21875 298.8125 C 468.21875 298.925781 468.183594 299.011719 468.113281 299.070312 C 468.042969 299.128906 468.011719 299.214844 468.011719 299.328125 C 467.726562 299.558594 467.277344 300.273438 466.644531 301.476562 C 466.019531 302.679688 465.421875 303.742188 464.863281 304.65625 C 464.304688 305.574219 463.742188 306.546875 463.1875 307.578125 C 462.628906 308.613281 462.207031 309.46875 461.929688 310.15625 C 461.226562 311.765625 460.53125 313.367188 459.832031 314.96875 C 459.132812 316.574219 458.429688 318.296875 457.734375 320.128906 "/>
<path style=" stroke:none;fill-rule:nonzero;fill:rgb(13.729858%,12.159729%,12.548828%);fill-opacity:1;" d="M 548.121094 313.421875 C 548.960938 311.019531 549.449219 309.101562 549.589844 307.664062 C 549.726562 306.234375 549.621094 305.085938 549.277344 304.226562 C 548.925781 303.367188 548.507812 302.796875 548.019531 302.507812 C 547.523438 302.222656 547.144531 302.019531 546.863281 301.90625 C 546.445312 301.792969 545.742188 301.761719 544.769531 301.820312 C 543.785156 301.878906 542.492188 302.421875 540.886719 303.453125 C 539.277344 304.484375 537.429688 306.203125 535.328125 308.613281 C 533.230469 311.019531 530.855469 314.570312 528.195312 319.269531 C 525.542969 324.082031 523.933594 327.75 523.375 330.269531 C 522.8125 332.792969 522.671875 334.683594 522.957031 335.945312 C 523.375 337.320312 524.28125 338.117188 525.683594 338.351562 C 528.335938 338.695312 530.925781 337.691406 533.441406 335.34375 C 535.960938 332.996094 538.265625 330.328125 540.363281 327.347656 C 542.738281 323.910156 545.046875 319.902344 547.28125 315.316406 C 547.28125 315.203125 547.351562 315.085938 547.492188 314.972656 Z M 583.984375 317.203125 C 585.382812 317.546875 586.082031 318.238281 586.082031 319.269531 C 586.082031 319.726562 585.941406 320.242188 585.664062 320.816406 C 584.824219 322.308594 583.597656 324.28125 581.992188 326.746094 C 580.382812 329.210938 578.5625 331.703125 576.539062 334.226562 C 574.511719 336.742188 572.347656 339.125 570.039062 341.359375 C 567.730469 343.59375 565.316406 345.285156 562.804688 346.433594 C 561.265625 347.230469 559.726562 347.722656 558.1875 347.890625 C 556.648438 348.0625 555.253906 348.089844 553.992188 347.976562 C 552.457031 347.863281 551.058594 347.632812 549.800781 347.285156 C 547.003906 346.257812 545.082031 344.652344 544.03125 342.476562 C 542.984375 340.296875 542.527344 337.71875 542.667969 334.738281 C 539.453125 338.75 535.925781 341.898438 532.078125 344.195312 C 528.230469 346.488281 524.5625 347.519531 521.066406 347.285156 C 518.550781 347.171875 516.066406 346.601562 513.625 345.570312 C 511.179688 344.539062 509.289062 342.847656 507.960938 340.496094 C 506.632812 338.148438 506.070312 335.027344 506.28125 331.128906 C 506.492188 327.238281 507.925781 322.363281 510.582031 316.519531 C 513.238281 310.671875 516.246094 305.945312 519.601562 302.335938 C 522.957031 298.726562 526.308594 295.976562 529.667969 294.085938 C 533.019531 292.195312 536.34375 291.078125 539.632812 290.734375 C 542.910156 290.386719 545.8125 290.621094 548.335938 291.421875 C 550.429688 292.109375 552.003906 293.082031 553.050781 294.339844 C 554.101562 295.605469 554.832031 296.980469 555.253906 298.46875 C 555.953125 297.324219 556.582031 296.175781 557.140625 295.027344 C 557.417969 294.574219 557.699219 294.113281 557.980469 293.65625 C 558.257812 292.96875 558.679688 292.394531 559.238281 291.933594 C 559.660156 291.480469 560.144531 291.078125 560.707031 290.734375 C 561.265625 290.386719 561.890625 290.332031 562.59375 290.558594 C 563.851562 290.90625 565.527344 291.59375 567.625 292.621094 C 569.722656 293.65625 571.679688 295.027344 573.5 296.75 C 574.058594 297.207031 574.40625 297.78125 574.546875 298.46875 C 574.683594 299.042969 574.652344 299.789062 574.441406 300.703125 C 574.230469 301.621094 573.707031 302.710938 572.867188 303.96875 C 572.308594 304.773438 571.472656 306.035156 570.355469 307.75 C 569.234375 309.46875 568.011719 311.445312 566.683594 313.683594 C 565.351562 315.914062 564.0625 318.265625 562.804688 320.730469 C 561.546875 323.195312 560.5625 325.488281 559.867188 327.609375 C 559.167969 329.730469 558.886719 331.53125 559.027344 333.019531 C 559.167969 334.507812 559.933594 335.429688 561.335938 335.769531 C 562.875 336.226562 564.511719 335.859375 566.265625 334.652344 C 568.011719 333.449219 569.722656 331.960938 571.402344 330.183594 C 573.082031 328.40625 574.578125 326.519531 575.910156 324.511719 C 577.238281 322.511719 578.320312 320.875 579.164062 319.613281 C 579.300781 319.15625 579.648438 318.695312 580.210938 318.238281 C 581.1875 317.4375 582.445312 317.09375 583.984375 317.203125 "/>
<path style=" stroke:none;fill-rule:nonzero;fill:rgb(13.729858%,12.159729%,12.548828%);fill-opacity:1;" d="M 580.628906 316.519531 C 583.285156 310.671875 586.253906 305.945312 589.542969 302.335938 C 592.824219 298.726562 596.179688 295.976562 599.605469 294.085938 C 603.035156 292.195312 606.390625 291.078125 609.675781 290.734375 C 612.957031 290.386719 615.859375 290.621094 618.378906 291.421875 C 620.335938 291.996094 621.839844 292.855469 622.886719 294 C 623.9375 295.148438 624.667969 296.40625 625.089844 297.78125 C 625.511719 299.15625 625.71875 300.53125 625.71875 301.90625 C 625.71875 303.285156 625.578125 304.546875 625.296875 305.6875 C 625.15625 306.261719 624.492188 306.78125 623.308594 307.238281 C 622.117188 307.695312 621.242188 307.984375 620.6875 308.09375 C 620.265625 308.207031 619.914062 308.15625 619.636719 307.921875 C 619.496094 307.808594 619.425781 307.695312 619.425781 307.578125 C 619.703125 305.289062 619.460938 303.796875 618.691406 303.109375 C 617.921875 302.421875 617.257812 302.019531 616.699219 301.90625 C 616.417969 301.792969 615.789062 301.761719 614.8125 301.820312 C 613.832031 301.878906 612.539062 302.421875 610.933594 303.453125 C 609.324219 304.484375 607.472656 306.203125 605.375 308.613281 C 603.277344 311.015625 600.898438 314.570312 598.242188 319.269531 C 596.703125 321.789062 595.65625 323.910156 595.101562 325.628906 C 594.816406 326.320312 594.472656 327.375 594.050781 328.8125 C 593.632812 330.246094 593.453125 331.707031 593.527344 333.195312 C 593.597656 334.679688 594.015625 336.117188 594.785156 337.492188 C 595.550781 338.867188 596.917969 339.839844 598.875 340.410156 C 599.433594 340.640625 599.988281 340.753906 600.550781 340.753906 L 600.765625 340.753906 C 600.898438 340.753906 601.039062 340.816406 601.183594 340.925781 C 603.695312 341.15625 606.074219 341.039062 608.3125 340.582031 C 610.546875 340.125 612.609375 339.464844 614.496094 338.609375 C 616.386719 337.75 618.0625 336.773438 619.53125 335.683594 C 621 334.59375 622.289062 333.539062 623.410156 332.503906 C 623.691406 332.277344 624.109375 331.820312 624.667969 331.128906 C 625.089844 330.785156 625.402344 330.5 625.613281 330.265625 C 625.824219 330.042969 626.066406 329.8125 626.347656 329.582031 C 627.886719 327.863281 629.285156 326.089844 630.542969 324.253906 C 631.800781 322.421875 632.777344 320.875 633.480469 319.613281 C 633.617188 319.15625 633.96875 318.695312 634.527344 318.238281 C 635.503906 317.4375 636.765625 317.09375 638.304688 317.207031 C 639.140625 317.4375 639.664062 317.722656 639.875 318.066406 C 640.085938 318.414062 640.191406 318.808594 640.191406 319.269531 C 640.191406 319.726562 640.050781 320.246094 639.769531 320.816406 C 638.371094 323.222656 636.417969 326.257812 633.898438 329.925781 C 633.339844 331.074219 632.011719 332.847656 629.914062 335.253906 C 629.632812 335.597656 629.285156 335.96875 628.863281 336.375 C 628.445312 336.773438 628.027344 337.257812 627.609375 337.832031 C 624.808594 340.464844 621.347656 343.078125 617.226562 345.65625 C 613.101562 348.234375 608.242188 349.636719 602.648438 349.867188 C 600.691406 350.09375 598.804688 350.09375 596.988281 349.867188 C 591.8125 349.410156 587.792969 348.429688 584.929688 346.945312 C 582.0625 345.457031 579.925781 343.621094 578.53125 341.445312 C 577.273438 339.496094 576.539062 337.375 576.328125 335.082031 C 576.117188 332.792969 576.222656 330.5 576.644531 328.207031 L 576.644531 328.035156 C 577.347656 324.597656 578.671875 320.757812 580.628906 316.519531 "/>
<path style=" stroke:none;fill-rule:nonzero;fill:rgb(13.729858%,12.159729%,12.548828%);fill-opacity:1;" d="M 706.25 317.207031 C 707.644531 317.550781 708.347656 318.238281 708.347656 319.269531 C 708.347656 319.726562 708.207031 320.242188 707.929688 320.8125 C 706.527344 323.109375 704.5 326.203125 701.847656 330.101562 C 699.1875 333.992188 696.1875 337.601562 692.828125 340.929688 C 691.847656 341.726562 690.660156 342.589844 689.265625 343.507812 C 687.863281 344.425781 686.222656 345.226562 684.335938 345.910156 C 682.445312 346.601562 680.3125 347.117188 677.941406 347.460938 C 675.558594 347.804688 672.976562 347.6875 670.179688 347.117188 C 667.242188 346.433594 664.726562 345.457031 662.628906 344.191406 C 660.53125 342.933594 658.75 341.53125 657.28125 339.980469 C 655.8125 338.433594 654.621094 336.804688 653.714844 335.082031 C 652.804688 333.367188 652.070312 331.761719 651.515625 330.269531 C 649.835938 333.019531 648.15625 335.941406 646.480469 339.039062 C 644.800781 342.132812 643.195312 345.457031 641.65625 349.007812 C 641.515625 349.695312 641.199219 350.097656 640.714844 350.214844 C 640.222656 350.324219 639.835938 350.382812 639.558594 350.382812 C 636.339844 350.152344 633.824219 349.496094 632.007812 348.402344 C 630.191406 347.316406 628.863281 346.3125 628.027344 345.394531 L 628.234375 345.394531 C 627.957031 345.167969 627.8125 345 627.8125 344.882812 C 627.8125 342.707031 628.097656 340.269531 628.652344 337.574219 C 629.214844 334.882812 629.84375 332.160156 630.539062 329.410156 C 631.242188 326.660156 632.046875 324 632.953125 321.417969 C 633.859375 318.839844 634.664062 316.519531 635.367188 314.457031 C 636.0625 312.851562 636.691406 311.273438 637.253906 309.726562 C 637.808594 308.179688 638.300781 306.890625 638.722656 305.859375 C 639.695312 303.683594 640.644531 301.675781 641.554688 299.84375 C 642.460938 298.011719 643.261719 296.292969 643.964844 294.6875 C 648.019531 285.632812 652.210938 277.46875 656.546875 270.191406 C 660.878906 262.914062 664.863281 256.695312 668.503906 251.539062 C 672.699219 245.464844 676.683594 240.082031 680.453125 235.378906 C 681.296875 234.582031 682.132812 233.945312 682.972656 233.488281 C 683.671875 233.03125 684.472656 232.6875 685.386719 232.457031 C 686.289062 232.230469 687.238281 232.402344 688.214844 232.972656 C 689.054688 233.546875 690.171875 234.40625 691.570312 235.550781 C 692.96875 236.695312 694.191406 238.015625 695.242188 239.503906 C 696.289062 240.996094 696.984375 242.542969 697.339844 244.144531 C 697.6875 245.75 697.371094 247.300781 696.394531 248.785156 C 695.691406 249.816406 694.261719 251.453125 692.097656 253.6875 C 689.925781 255.921875 687.339844 258.785156 684.335938 262.28125 C 681.328125 265.777344 678.074219 269.90625 674.585938 274.660156 C 671.089844 279.414062 667.664062 284.773438 664.304688 290.734375 C 662.90625 293.027344 660.878906 296.777344 658.226562 301.992188 C 655.566406 307.210938 652.839844 313.308594 650.046875 320.300781 C 652.699219 316.519531 655.601562 312.710938 658.75 308.867188 C 661.894531 305.03125 665.074219 301.621094 668.292969 298.640625 C 671.507812 295.660156 674.617188 293.398438 677.625 291.851562 C 680.628906 290.300781 683.394531 289.988281 685.90625 290.90625 C 687.167969 291.363281 688.738281 292.082031 690.628906 293.050781 C 692.515625 294.027344 694.226562 295.261719 695.765625 296.75 C 696.324219 297.207031 696.671875 297.78125 696.8125 298.46875 C 696.949219 299.042969 696.917969 299.789062 696.707031 300.703125 C 696.5 301.621094 695.976562 302.710938 695.136719 303.96875 C 694.433594 305.117188 693.105469 307.179688 691.152344 310.15625 C 689.191406 313.140625 687.378906 316.292969 685.699219 319.613281 C 685.136719 320.300781 684.230469 320.644531 682.972656 320.644531 C 681.714844 320.644531 680.386719 320.503906 678.988281 320.214844 C 677.585938 319.929688 676.222656 319.558594 674.898438 319.097656 C 673.566406 318.644531 672.554688 318.238281 671.855469 317.894531 C 670.734375 317.4375 670.074219 316.890625 669.863281 316.261719 C 669.652344 315.632812 669.617188 315.203125 669.757812 314.972656 C 670.457031 313.023438 671.230469 311.132812 672.066406 309.300781 C 672.90625 307.46875 673.742188 305.746094 674.585938 304.140625 L 674.375 304.140625 C 673.535156 304.71875 672.625 305.460938 671.648438 306.375 C 670.808594 307.179688 669.828125 308.125 668.710938 309.214844 C 667.589844 310.304688 666.332031 311.59375 664.9375 313.082031 C 664.515625 313.882812 664.097656 314.945312 663.679688 316.261719 C 663.257812 317.582031 662.976562 319.039062 662.835938 320.644531 C 662.695312 322.253906 662.804688 323.882812 663.152344 325.542969 C 663.5 327.207031 664.234375 328.726562 665.355469 330.101562 C 666.613281 331.933594 668.503906 333.421875 671.019531 334.566406 C 673.535156 335.480469 675.804688 336.085938 677.835938 336.375 C 679.859375 336.65625 681.640625 336.6875 683.183594 336.460938 C 685.136719 336.113281 686.851562 335.511719 688.320312 334.652344 C 689.789062 333.796875 690.871094 333.082031 691.570312 332.507812 C 693.523438 330.558594 695.414062 328.324219 697.230469 325.800781 C 699.050781 323.28125 700.449219 321.21875 701.429688 319.613281 C 701.566406 319.15625 701.917969 318.695312 702.476562 318.238281 C 703.453125 317.4375 704.710938 317.09375 706.25 317.207031 "/>
<path style=" stroke:none;fill-rule:nonzero;fill:rgb(13.729858%,12.159729%,12.548828%);fill-opacity:1;" d="M 111.042969 418.363281 C 120.832031 418.277344 126.5 412.90625 126.5 403.261719 L 126.5 403.082031 C 126.5 393.25 120.496094 388.0625 111.042969 388.0625 L 107.597656 388.0625 L 107.597656 418.363281 Z M 100.371094 382.601562 L 110.710938 382.601562 C 124.71875 382.601562 133.726562 389.972656 133.726562 402.894531 L 133.726562 403.082031 C 133.726562 415.820312 125.167969 423.554688 110.710938 423.734375 L 107.597656 423.734375 L 107.597656 446.304688 L 100.371094 446.304688 Z M 100.371094 382.601562 "/>
<path style=" stroke:none;fill-rule:nonzero;fill:rgb(13.729858%,12.159729%,12.548828%);fill-opacity:1;" d="M 141.511719 382.601562 L 168.859375 382.601562 L 168.859375 388.160156 L 148.738281 388.160156 L 148.738281 411.453125 L 166.972656 411.453125 L 166.972656 417.003906 L 148.738281 417.003906 L 148.738281 440.753906 L 169.195312 440.753906 L 169.195312 446.304688 L 141.511719 446.304688 Z M 141.511719 382.601562 "/>
<path style=" stroke:none;fill-rule:nonzero;fill:rgb(13.729858%,12.159729%,12.548828%);fill-opacity:1;" d="M 175.417969 443.9375 L 175.417969 437.476562 C 180.644531 440.117188 184.980469 441.390625 188.652344 441.390625 C 194.542969 441.390625 198.546875 438.386719 198.546875 433.203125 L 198.546875 433.023438 C 198.546875 428.375 196.546875 425.285156 188.539062 416.726562 C 178.421875 406.082031 175.53125 402.347656 175.53125 395.980469 L 175.53125 395.796875 C 175.53125 387.519531 182.757812 381.785156 191.765625 381.785156 C 196.546875 381.785156 199.992188 382.695312 203.664062 384.425781 L 203.664062 390.882812 C 199.4375 388.609375 195.875 387.519531 192.210938 387.519531 C 186.761719 387.519531 182.757812 390.703125 182.757812 395.433594 L 182.757812 395.617188 C 182.757812 399.894531 184.871094 402.898438 192.875 411.085938 C 202.660156 420.914062 205.773438 425.738281 205.773438 432.746094 L 205.773438 432.925781 C 205.773438 441.484375 198.4375 447.125 188.984375 447.125 C 184.203125 447.125 179.980469 445.941406 175.417969 443.9375 "/>
<path style=" stroke:none;fill-rule:nonzero;fill:rgb(13.729858%,12.159729%,12.548828%);fill-opacity:1;" d="M 220.449219 388.15625 L 208.664062 388.15625 L 208.664062 382.601562 L 239.574219 382.601562 L 239.574219 388.15625 L 227.675781 388.15625 L 227.675781 446.304688 L 220.449219 446.304688 Z M 220.449219 388.15625 "/>
<path style=" stroke:none;fill-rule:nonzero;fill:rgb(13.729858%,12.159729%,12.548828%);fill-opacity:1;" d="M 264.808594 382.601562 L 272.820312 382.601562 L 285.828125 414.910156 L 298.949219 382.601562 L 306.953125 382.601562 L 306.953125 446.304688 L 299.945312 446.304688 L 299.945312 395.886719 L 286.046875 429.378906 L 285.601562 429.378906 L 271.707031 395.886719 L 271.707031 446.304688 L 264.808594 446.304688 Z M 264.808594 382.601562 "/>
<path style=" stroke:none;fill-rule:nonzero;fill:rgb(13.729858%,12.159729%,12.548828%);fill-opacity:1;" d="M 342.863281 424.464844 L 334.96875 392.433594 L 327.074219 424.464844 Z M 331.1875 382.332031 L 338.972656 382.332031 L 355.429688 446.304688 L 348.089844 446.304688 L 343.976562 429.832031 L 325.964844 429.832031 L 321.960938 446.304688 L 314.847656 446.304688 Z M 331.1875 382.332031 "/>
<path style=" stroke:none;fill-rule:nonzero;fill:rgb(13.729858%,12.159729%,12.548828%);fill-opacity:1;" d="M 363.429688 382.601562 L 370.660156 382.601562 L 392.121094 430.378906 L 392.121094 382.601562 L 399.125 382.601562 L 399.125 446.304688 L 392.339844 446.304688 L 370.328125 397.167969 L 370.328125 446.304688 L 363.429688 446.304688 Z M 363.429688 382.601562 "/>
<path style=" stroke:none;fill-rule:nonzero;fill:rgb(13.729858%,12.159729%,12.548828%);fill-opacity:1;" d="M 435.039062 424.464844 L 427.140625 392.433594 L 419.25 424.464844 Z M 423.363281 382.332031 L 431.144531 382.332031 L 447.601562 446.304688 L 440.265625 446.304688 L 436.148438 429.832031 L 418.136719 429.832031 L 414.136719 446.304688 L 407.015625 446.304688 Z M 423.363281 382.332031 "/>
<path style=" stroke:none;fill-rule:nonzero;fill:rgb(13.729858%,12.159729%,12.548828%);fill-opacity:1;" d="M 450.828125 415.363281 L 450.828125 413.546875 C 450.828125 392.707031 461.832031 382.054688 475.066406 382.054688 C 479.175781 382.054688 482.070312 382.785156 484.851562 384.058594 L 484.851562 390.339844 C 481.515625 388.703125 478.515625 387.792969 475.175781 387.792969 C 466.058594 387.792969 458.164062 396.257812 458.164062 413.453125 L 458.164062 415.457031 C 458.164062 433.472656 465.835938 441.480469 475.066406 441.480469 C 476.734375 441.480469 477.734375 441.300781 479.292969 440.84375 L 479.292969 418.09375 L 468.949219 418.09375 L 468.949219 412.722656 L 485.960938 412.722656 L 485.960938 444.578125 C 481.734375 446.304688 478.847656 446.847656 474.621094 446.847656 C 461.609375 446.847656 450.828125 436.65625 450.828125 415.363281 "/>
<path style=" stroke:none;fill-rule:nonzero;fill:rgb(13.729858%,12.159729%,12.548828%);fill-opacity:1;" d="M 496.859375 382.601562 L 524.210938 382.601562 L 524.210938 388.160156 L 504.085938 388.160156 L 504.085938 411.453125 L 522.320312 411.453125 L 522.320312 417.003906 L 504.085938 417.003906 L 504.085938 440.753906 L 524.542969 440.753906 L 524.542969 446.304688 L 496.859375 446.304688 Z M 496.859375 382.601562 "/>
<path style=" stroke:none;fill-rule:nonzero;fill:rgb(13.729858%,12.159729%,12.548828%);fill-opacity:1;" d="M 533.101562 382.601562 L 541.105469 382.601562 L 554.117188 414.910156 L 567.238281 382.601562 L 575.242188 382.601562 L 575.242188 446.304688 L 568.238281 446.304688 L 568.238281 395.886719 L 554.339844 429.378906 L 553.894531 429.378906 L 539.996094 395.886719 L 539.996094 446.304688 L 533.101562 446.304688 Z M 533.101562 382.601562 "/>
<path style=" stroke:none;fill-rule:nonzero;fill:rgb(13.729858%,12.159729%,12.548828%);fill-opacity:1;" d="M 586.46875 382.601562 L 613.824219 382.601562 L 613.824219 388.160156 L 593.699219 388.160156 L 593.699219 411.453125 L 611.933594 411.453125 L 611.933594 417.003906 L 593.699219 417.003906 L 593.699219 440.753906 L 614.15625 440.753906 L 614.15625 446.304688 L 586.46875 446.304688 Z M 586.46875 382.601562 "/>
<path style=" stroke:none;fill-rule:nonzero;fill:rgb(13.729858%,12.159729%,12.548828%);fill-opacity:1;" d="M 622.71875 382.601562 L 629.945312 382.601562 L 651.402344 430.378906 L 651.402344 382.601562 L 658.40625 382.601562 L 658.40625 446.304688 L 651.625 446.304688 L 629.613281 397.167969 L 629.613281 446.304688 L 622.71875 446.304688 Z M 622.71875 382.601562 "/>
<path style=" stroke:none;fill-rule:nonzero;fill:rgb(13.729858%,12.159729%,12.548828%);fill-opacity:1;" d="M 677.199219 388.15625 L 665.414062 388.15625 L 665.414062 382.601562 L 696.324219 382.601562 L 696.324219 388.15625 L 684.425781 388.15625 L 684.425781 446.304688 L 677.199219 446.304688 Z M 677.199219 388.15625 "/>
<path style=" stroke:none;fill-rule:nonzero;fill:rgb(13.729858%,12.159729%,12.548828%);fill-opacity:1;" d="M 591.464844 219.910156 C 590.398438 219.910156 589.359375 219.367188 588.765625 218.386719 C 587.867188 216.898438 588.347656 214.964844 589.835938 214.066406 C 596.25 210.199219 601.792969 206.175781 606.3125 202.105469 C 607.605469 200.941406 609.597656 201.042969 610.757812 202.339844 C 611.921875 203.628906 611.820312 205.621094 610.527344 206.785156 C 605.710938 211.121094 599.84375 215.382812 593.085938 219.457031 C 592.578125 219.765625 592.019531 219.910156 591.464844 219.910156 M 553.378906 237.417969 C 552.078125 237.417969 550.867188 236.613281 550.410156 235.316406 C 549.828125 233.679688 550.695312 231.878906 552.328125 231.300781 C 559.074219 228.917969 565.542969 226.328125 571.558594 223.597656 C 573.136719 222.878906 575.007812 223.578125 575.726562 225.160156 C 576.445312 226.746094 575.742188 228.609375 574.160156 229.328125 C 567.980469 232.132812 561.339844 234.792969 554.429688 237.234375 C 554.082031 237.359375 553.726562 237.417969 553.378906 237.417969 M 367.417969 245.480469 C 367.132812 245.480469 366.839844 245.445312 366.554688 245.363281 C 360.125 243.53125 353.796875 241.433594 347.738281 239.128906 C 346.113281 238.511719 345.296875 236.691406 345.917969 235.070312 C 346.535156 233.441406 348.355469 232.625 349.980469 233.246094 C 355.867188 235.484375 362.023438 237.527344 368.277344 239.304688 C 369.949219 239.78125 370.917969 241.523438 370.441406 243.195312 C 370.046875 244.578125 368.785156 245.480469 367.417969 245.480469 M 512.933594 248.570312 C 511.46875 248.570312 510.15625 247.546875 509.851562 246.058594 C 509.5 244.355469 510.597656 242.6875 512.300781 242.339844 C 519.140625 240.925781 525.941406 239.296875 532.515625 237.496094 C 534.195312 237.03125 535.921875 238.019531 536.378906 239.699219 C 536.84375 241.371094 535.859375 243.105469 534.179688 243.566406 C 527.476562 245.40625 520.542969 247.066406 513.570312 248.503906 C 513.355469 248.550781 513.144531 248.570312 512.933594 248.570312 M 408.558594 253.585938 C 408.4375 253.585938 408.3125 253.578125 408.1875 253.5625 C 401.078125 252.726562 394.023438 251.632812 387.21875 250.300781 C 385.511719 249.964844 384.398438 248.3125 384.734375 246.605469 C 385.066406 244.898438 386.714844 243.789062 388.429688 244.121094 C 395.078125 245.421875 401.972656 246.496094 408.921875 247.308594 C 410.648438 247.511719 411.882812 249.078125 411.683594 250.804688 C 411.492188 252.402344 410.132812 253.585938 408.558594 253.585938 M 471.394531 254.511719 C 469.773438 254.511719 468.398438 253.265625 468.261719 251.617188 C 468.121094 249.886719 469.410156 248.367188 471.144531 248.226562 C 478.023438 247.664062 484.976562 246.886719 491.808594 245.90625 C 493.515625 245.660156 495.128906 246.859375 495.371094 248.578125 C 495.617188 250.300781 494.421875 251.890625 492.703125 252.140625 C 485.742188 253.136719 478.660156 253.929688 471.65625 254.5 C 471.570312 254.507812 471.484375 254.511719 471.394531 254.511719 M 444.417969 255.625 L 444.226562 255.625 C 439.230469 255.625 434.21875 255.511719 429.320312 255.28125 C 427.582031 255.203125 426.242188 253.726562 426.324219 251.992188 C 426.402344 250.253906 427.898438 248.898438 429.613281 248.992188 C 434.472656 249.21875 439.441406 249.300781 444.417969 249.332031 C 446.410156 249.332031 448.402344 249.3125 450.386719 249.269531 C 452.085938 249.28125 453.5625 250.621094 453.59375 252.359375 C 453.628906 254.097656 452.246094 255.53125 450.511719 255.5625 C 448.484375 255.605469 446.453125 255.625 444.417969 255.625 "/>
</g>
</svg>
